<mxfile host="65bd71144e" modified="2020-12-09T16:43:44.174Z" agent="5.0 (Macintosh; Intel Mac OS X 10_15_7) AppleWebKit/537.36 (KHTML, like Gecko) Code/1.51.1 Chrome/83.0.4103.122 Electron/9.3.3 Safari/537.36" etag="ZcJO2BK_IL-Juc3dcNXz" version="13.10.0" type="embed">
    <diagram id="Y-RTV9hDFDya-AUA4AAp" name="Page-1">
        <mxGraphModel dx="1004" dy="935" grid="1" gridSize="10" guides="1" tooltips="1" connect="1" arrows="1" fold="1" page="1" pageScale="1" pageWidth="1169" pageHeight="827" math="0" shadow="0">
            <root>
                <mxCell id="0"/>
                <mxCell id="1" parent="0"/>
                <mxCell id="zGZ7-r_WiMqHJLO-a-PP-44" style="vsdxID=5;edgeStyle=none;startArrow=none;endArrow=none;startSize=5;endSize=5;strokeColor=#000000;spacingTop=-3;spacingBottom=-3;spacingLeft=-3;spacingRight=-3;verticalAlign=middle;html=1;labelBackgroundColor=none;rounded=0;exitX=0.5035460992907801;exitY=0.5;exitDx=0;exitDy=0;exitPerimeter=0;entryX=0.5035460992907801;entryY=0.5142857142857142;entryDx=0;entryDy=0;entryPerimeter=0;" parent="1" source="zGZ7-r_WiMqHJLO-a-PP-3" target="zGZ7-r_WiMqHJLO-a-PP-39" edge="1">
                    <mxGeometry relative="1" as="geometry">
                        <mxPoint y="-1" as="offset"/>
                        <Array as="points"/>
                    </mxGeometry>
                </mxCell>
                <mxCell id="zGZ7-r_WiMqHJLO-a-PP-45" style="vsdxID=4;edgeStyle=none;startArrow=none;endArrow=none;startSize=5;endSize=5;strokeColor=#000000;spacingTop=-3;spacingBottom=-3;spacingLeft=-3;spacingRight=-3;verticalAlign=middle;html=1;labelBackgroundColor=none;rounded=0;exitX=0.5035460992907801;exitY=0.5142857142857142;exitDx=0;exitDy=0;exitPerimeter=0;entryX=0.5035460992907801;entryY=0.5;entryDx=0;entryDy=0;entryPerimeter=0;" parent="1" source="zGZ7-r_WiMqHJLO-a-PP-39" target="zGZ7-r_WiMqHJLO-a-PP-40" edge="1">
                    <mxGeometry relative="1" as="geometry">
                        <mxPoint y="-1" as="offset"/>
                        <Array as="points"/>
                    </mxGeometry>
                </mxCell>
                <mxCell id="zGZ7-r_WiMqHJLO-a-PP-46" style="vsdxID=3;edgeStyle=none;startArrow=none;endArrow=none;startSize=5;endSize=5;strokeColor=#000000;spacingTop=-3;spacingBottom=-3;spacingLeft=-3;spacingRight=-3;verticalAlign=middle;html=1;labelBackgroundColor=none;rounded=0;exitX=0.5035460992907801;exitY=0.5;exitDx=0;exitDy=0;exitPerimeter=0;entryX=0.5035460992907801;entryY=0.5;entryDx=0;entryDy=0;entryPerimeter=0;" parent="1" source="zGZ7-r_WiMqHJLO-a-PP-40" target="zGZ7-r_WiMqHJLO-a-PP-41" edge="1">
                    <mxGeometry relative="1" as="geometry">
                        <mxPoint y="-1" as="offset"/>
                        <Array as="points"/>
                    </mxGeometry>
                </mxCell>
                <mxCell id="zGZ7-r_WiMqHJLO-a-PP-47" style="vsdxID=2;edgeStyle=none;startArrow=none;endArrow=none;startSize=5;endSize=5;strokeColor=#000000;spacingTop=-3;spacingBottom=-3;spacingLeft=-3;spacingRight=-3;verticalAlign=middle;html=1;labelBackgroundColor=none;rounded=0;exitX=0.5035460992907801;exitY=0.5142857142857142;exitDx=0;exitDy=0;exitPerimeter=0;entryX=0.5035460992907801;entryY=0.5;entryDx=0;entryDy=0;entryPerimeter=0;" parent="1" source="zGZ7-r_WiMqHJLO-a-PP-42" target="zGZ7-r_WiMqHJLO-a-PP-43" edge="1">
                    <mxGeometry relative="1" as="geometry">
                        <mxPoint y="-1" as="offset"/>
                        <Array as="points"/>
                    </mxGeometry>
                </mxCell>
                <mxCell id="zGZ7-r_WiMqHJLO-a-PP-48" style="vsdxID=1;edgeStyle=none;startArrow=none;endArrow=none;startSize=5;endSize=5;strokeColor=#000000;spacingTop=-3;spacingBottom=-3;spacingLeft=-3;spacingRight=-3;verticalAlign=middle;html=1;labelBackgroundColor=none;rounded=0;exitX=0.5035460992907801;exitY=0.5;exitDx=0;exitDy=0;exitPerimeter=0;entryX=0.5035460992907801;entryY=0.5142857142857142;entryDx=0;entryDy=0;entryPerimeter=0;" parent="1" source="zGZ7-r_WiMqHJLO-a-PP-41" target="zGZ7-r_WiMqHJLO-a-PP-42" edge="1">
                    <mxGeometry relative="1" as="geometry">
                        <mxPoint y="-1" as="offset"/>
                        <Array as="points"/>
                    </mxGeometry>
                </mxCell>
                <mxCell id="zGZ7-r_WiMqHJLO-a-PP-49" style="vsdxID=6;edgeStyle=none;startArrow=none;endArrow=none;startSize=5;endSize=5;strokeColor=#000000;spacingTop=-3;spacingBottom=-3;spacingLeft=-3;spacingRight=-3;verticalAlign=middle;html=1;labelBackgroundColor=none;rounded=0;exitX=0.5035460992907801;exitY=0.5;exitDx=0;exitDy=0;exitPerimeter=0;entryX=0.5035460992907801;entryY=0.5142857142857142;entryDx=0;entryDy=0;entryPerimeter=0;" parent="1" source="zGZ7-r_WiMqHJLO-a-PP-2" target="zGZ7-r_WiMqHJLO-a-PP-4" edge="1">
                    <mxGeometry relative="1" as="geometry">
                        <mxPoint y="-1" as="offset"/>
                        <Array as="points"/>
                    </mxGeometry>
                </mxCell>
                <mxCell id="zGZ7-r_WiMqHJLO-a-PP-50" style="vsdxID=7;edgeStyle=none;startArrow=none;endArrow=none;startSize=5;endSize=5;strokeColor=#000000;spacingTop=-3;spacingBottom=-3;spacingLeft=-3;spacingRight=-3;verticalAlign=middle;html=1;labelBackgroundColor=none;rounded=0;exitX=0.5035460992907801;exitY=0.5142857142857142;exitDx=0;exitDy=0;exitPerimeter=0;entryX=0.5035460992907801;entryY=0.5;entryDx=0;entryDy=0;entryPerimeter=0;" parent="1" source="zGZ7-r_WiMqHJLO-a-PP-4" target="zGZ7-r_WiMqHJLO-a-PP-35" edge="1">
                    <mxGeometry relative="1" as="geometry">
                        <mxPoint y="-1" as="offset"/>
                        <Array as="points"/>
                    </mxGeometry>
                </mxCell>
                <mxCell id="zGZ7-r_WiMqHJLO-a-PP-52" style="vsdxID=9;edgeStyle=none;startArrow=none;endArrow=none;startSize=5;endSize=5;strokeColor=#000000;spacingTop=-3;spacingBottom=-3;spacingLeft=-3;spacingRight=-3;verticalAlign=middle;html=1;labelBackgroundColor=none;rounded=0;exitX=0.5035460992907801;exitY=0.5142857142857142;exitDx=0;exitDy=0;exitPerimeter=0;entryX=0.5035460992907801;entryY=0.5;entryDx=0;entryDy=0;entryPerimeter=0;" parent="1" source="zGZ7-r_WiMqHJLO-a-PP-37" target="zGZ7-r_WiMqHJLO-a-PP-38" edge="1">
                    <mxGeometry relative="1" as="geometry">
                        <mxPoint y="-1" as="offset"/>
                        <Array as="points"/>
                    </mxGeometry>
                </mxCell>
                <mxCell id="zGZ7-r_WiMqHJLO-a-PP-53" style="vsdxID=10;edgeStyle=none;startArrow=none;endArrow=none;startSize=5;endSize=5;strokeColor=#000000;spacingTop=-3;spacingBottom=-3;spacingLeft=-3;spacingRight=-3;verticalAlign=middle;html=1;labelBackgroundColor=none;rounded=0;exitX=0.5035460992907801;exitY=0.5;exitDx=0;exitDy=0;exitPerimeter=0;entryX=0.5035460992907801;entryY=0.5142857142857142;entryDx=0;entryDy=0;entryPerimeter=0;" parent="1" source="zGZ7-r_WiMqHJLO-a-PP-36" target="zGZ7-r_WiMqHJLO-a-PP-37" edge="1">
                    <mxGeometry relative="1" as="geometry">
                        <mxPoint y="-1" as="offset"/>
                        <Array as="points"/>
                    </mxGeometry>
                </mxCell>
                <mxCell id="zGZ7-r_WiMqHJLO-a-PP-54" style="vsdxID=11;edgeStyle=none;startArrow=none;endArrow=none;startSize=5;endSize=5;strokeColor=#000000;spacingTop=-3;spacingBottom=-3;spacingLeft=-3;spacingRight=-3;verticalAlign=middle;html=1;labelBackgroundColor=none;rounded=0;exitX=0.5035460992907801;exitY=0.5;exitDx=0;exitDy=0;exitPerimeter=0;entryX=0.5035460992907801;entryY=0.5;entryDx=0;entryDy=0;entryPerimeter=0;" parent="1" source="zGZ7-r_WiMqHJLO-a-PP-35" target="zGZ7-r_WiMqHJLO-a-PP-36" edge="1">
                    <mxGeometry relative="1" as="geometry">
                        <mxPoint y="-1" as="offset"/>
                        <Array as="points"/>
                    </mxGeometry>
                </mxCell>
                <mxCell id="zGZ7-r_WiMqHJLO-a-PP-74" style="vsdxID=23;edgeStyle=none;startArrow=none;endArrow=none;startSize=5;endSize=5;strokeColor=#000000;spacingTop=-3;spacingBottom=-3;spacingLeft=-3;spacingRight=-3;verticalAlign=middle;html=1;labelBackgroundColor=none;rounded=1;exitX=0.5035460992907801;exitY=0.5142857142857142;exitDx=0;exitDy=0;exitPerimeter=0;entryX=0.5035460992907801;entryY=0.5;entryDx=0;entryDy=0;entryPerimeter=0;" parent="1" source="zGZ7-r_WiMqHJLO-a-PP-11" target="zGZ7-r_WiMqHJLO-a-PP-24" edge="1">
                    <mxGeometry relative="1" as="geometry">
                        <mxPoint y="-1" as="offset"/>
                        <Array as="points"/>
                    </mxGeometry>
                </mxCell>
                <mxCell id="zGZ7-r_WiMqHJLO-a-PP-75" style="vsdxID=24;edgeStyle=none;startArrow=none;endArrow=none;startSize=5;endSize=5;strokeColor=#000000;spacingTop=-3;spacingBottom=-3;spacingLeft=-3;spacingRight=-3;verticalAlign=middle;html=1;labelBackgroundColor=none;rounded=1;exitX=0.5035460992907801;exitY=0.5;exitDx=0;exitDy=0;exitPerimeter=0;entryX=0.5035460992907801;entryY=0.5;entryDx=0;entryDy=0;entryPerimeter=0;" parent="1" source="zGZ7-r_WiMqHJLO-a-PP-22" target="zGZ7-r_WiMqHJLO-a-PP-23" edge="1">
                    <mxGeometry relative="1" as="geometry">
                        <mxPoint y="-1" as="offset"/>
                        <Array as="points"/>
                    </mxGeometry>
                </mxCell>
                <mxCell id="zGZ7-r_WiMqHJLO-a-PP-76" style="vsdxID=25;edgeStyle=none;startArrow=none;endArrow=none;startSize=5;endSize=5;strokeColor=#000000;spacingTop=-3;spacingBottom=-3;spacingLeft=-3;spacingRight=-3;verticalAlign=middle;html=1;labelBackgroundColor=none;rounded=1;exitX=0.5035460992907801;exitY=0.5142857142857142;exitDx=0;exitDy=0;exitPerimeter=0;entryX=0.5035460992907801;entryY=0.5;entryDx=0;entryDy=0;entryPerimeter=0;" parent="1" source="zGZ7-r_WiMqHJLO-a-PP-10" target="zGZ7-r_WiMqHJLO-a-PP-22" edge="1">
                    <mxGeometry relative="1" as="geometry">
                        <mxPoint y="-1" as="offset"/>
                        <Array as="points"/>
                    </mxGeometry>
                </mxCell>
                <mxCell id="zGZ7-r_WiMqHJLO-a-PP-64" style="vsdxID=35;edgeStyle=none;startArrow=none;endArrow=none;startSize=5;endSize=5;strokeColor=#000000;spacingTop=-3;spacingBottom=-3;spacingLeft=-3;spacingRight=-3;verticalAlign=middle;html=1;labelBackgroundColor=none;rounded=1;exitX=0.5035460992907801;exitY=0.5142857142857142;exitDx=0;exitDy=0;exitPerimeter=0;entryX=0.5035460992907801;entryY=0.5;entryDx=0;entryDy=0;entryPerimeter=0;" parent="1" source="zGZ7-r_WiMqHJLO-a-PP-9" target="zGZ7-r_WiMqHJLO-a-PP-12" edge="1">
                    <mxGeometry relative="1" as="geometry">
                        <mxPoint y="-1" as="offset"/>
                        <Array as="points"/>
                    </mxGeometry>
                </mxCell>
                <mxCell id="zGZ7-r_WiMqHJLO-a-PP-65" style="vsdxID=34;edgeStyle=none;startArrow=none;endArrow=none;startSize=5;endSize=5;strokeColor=#000000;spacingTop=-3;spacingBottom=-3;spacingLeft=-3;spacingRight=-3;verticalAlign=middle;html=1;labelBackgroundColor=none;rounded=1;exitX=0.5035460992907801;exitY=0.5;exitDx=0;exitDy=0;exitPerimeter=0;entryX=0.5035460992907801;entryY=0.5;entryDx=0;entryDy=0;entryPerimeter=0;" parent="1" source="zGZ7-r_WiMqHJLO-a-PP-12" target="zGZ7-r_WiMqHJLO-a-PP-13" edge="1">
                    <mxGeometry relative="1" as="geometry">
                        <mxPoint y="-1" as="offset"/>
                        <Array as="points"/>
                    </mxGeometry>
                </mxCell>
                <mxCell id="zGZ7-r_WiMqHJLO-a-PP-66" style="vsdxID=33;edgeStyle=none;startArrow=none;endArrow=none;startSize=5;endSize=5;strokeColor=#000000;spacingTop=-3;spacingBottom=-3;spacingLeft=-3;spacingRight=-3;verticalAlign=middle;html=1;labelBackgroundColor=none;rounded=1;exitX=0.5035460992907801;exitY=0.5;exitDx=0;exitDy=0;exitPerimeter=0;entryX=0.5035460992907801;entryY=0.5142857142857142;entryDx=0;entryDy=0;entryPerimeter=0;" parent="1" source="zGZ7-r_WiMqHJLO-a-PP-13" target="zGZ7-r_WiMqHJLO-a-PP-14" edge="1">
                    <mxGeometry relative="1" as="geometry">
                        <mxPoint y="-1" as="offset"/>
                        <Array as="points"/>
                    </mxGeometry>
                </mxCell>
                <mxCell id="zGZ7-r_WiMqHJLO-a-PP-77" style="vsdxID=26;edgeStyle=none;startArrow=none;endArrow=none;startSize=5;endSize=5;strokeColor=#000000;spacingTop=-3;spacingBottom=-3;spacingLeft=-3;spacingRight=-3;verticalAlign=middle;html=1;labelBackgroundColor=none;rounded=1;exitX=0.49645390070921985;exitY=0.5142857142857142;exitDx=0;exitDy=0;exitPerimeter=0;entryX=0.49645390070921985;entryY=0.5;entryDx=0;entryDy=0;entryPerimeter=0;" parent="1" source="zGZ7-r_WiMqHJLO-a-PP-20" target="zGZ7-r_WiMqHJLO-a-PP-21" edge="1">
                    <mxGeometry relative="1" as="geometry">
                        <mxPoint y="-1" as="offset"/>
                        <Array as="points"/>
                    </mxGeometry>
                </mxCell>
                <mxCell id="zGZ7-r_WiMqHJLO-a-PP-78" style="vsdxID=27;edgeStyle=none;startArrow=none;endArrow=none;startSize=5;endSize=5;strokeColor=#000000;spacingTop=-3;spacingBottom=-3;spacingLeft=-3;spacingRight=-3;verticalAlign=middle;html=1;labelBackgroundColor=none;rounded=1;exitX=0.49645390070921985;exitY=0.5;exitDx=0;exitDy=0;exitPerimeter=0;entryX=0.49645390070921985;entryY=0.5142857142857142;entryDx=0;entryDy=0;entryPerimeter=0;" parent="1" source="zGZ7-r_WiMqHJLO-a-PP-19" target="zGZ7-r_WiMqHJLO-a-PP-20" edge="1">
                    <mxGeometry relative="1" as="geometry">
                        <mxPoint y="-1" as="offset"/>
                        <Array as="points"/>
                    </mxGeometry>
                </mxCell>
                <mxCell id="zGZ7-r_WiMqHJLO-a-PP-79" style="vsdxID=28;edgeStyle=none;startArrow=none;endArrow=none;startSize=5;endSize=5;strokeColor=#000000;spacingTop=-3;spacingBottom=-3;spacingLeft=-3;spacingRight=-3;verticalAlign=middle;html=1;labelBackgroundColor=none;rounded=1;exitX=0.49645390070921985;exitY=0.5;exitDx=0;exitDy=0;exitPerimeter=0;entryX=0.49645390070921985;entryY=0.5;entryDx=0;entryDy=0;entryPerimeter=0;" parent="1" source="zGZ7-r_WiMqHJLO-a-PP-18" target="zGZ7-r_WiMqHJLO-a-PP-19" edge="1">
                    <mxGeometry relative="1" as="geometry">
                        <mxPoint y="-1" as="offset"/>
                        <Array as="points"/>
                    </mxGeometry>
                </mxCell>
                <mxCell id="zGZ7-r_WiMqHJLO-a-PP-80" style="vsdxID=29;edgeStyle=none;startArrow=none;endArrow=none;startSize=5;endSize=5;strokeColor=#000000;spacingTop=-3;spacingBottom=-3;spacingLeft=-3;spacingRight=-3;verticalAlign=middle;html=1;labelBackgroundColor=none;rounded=1;exitX=0.49645390070921985;exitY=0.5142857142857142;exitDx=0;exitDy=0;exitPerimeter=0;entryX=0.49645390070921985;entryY=0.5;entryDx=0;entryDy=0;entryPerimeter=0;" parent="1" source="zGZ7-r_WiMqHJLO-a-PP-8" target="zGZ7-r_WiMqHJLO-a-PP-18" edge="1">
                    <mxGeometry relative="1" as="geometry">
                        <mxPoint y="-1" as="offset"/>
                        <Array as="points"/>
                    </mxGeometry>
                </mxCell>
                <mxCell id="zGZ7-r_WiMqHJLO-a-PP-81" style="vsdxID=30;edgeStyle=none;startArrow=none;endArrow=none;startSize=5;endSize=5;strokeColor=#000000;spacingTop=-3;spacingBottom=-3;spacingLeft=-3;spacingRight=-3;verticalAlign=middle;html=1;labelBackgroundColor=none;rounded=1;exitX=0.5035460992907801;exitY=0.5;exitDx=0;exitDy=0;exitPerimeter=0;entryX=0.5035460992907801;entryY=0.5142857142857142;entryDx=0;entryDy=0;entryPerimeter=0;" parent="1" source="zGZ7-r_WiMqHJLO-a-PP-16" target="zGZ7-r_WiMqHJLO-a-PP-17" edge="1">
                    <mxGeometry relative="1" as="geometry">
                        <mxPoint y="-1" as="offset"/>
                        <Array as="points"/>
                    </mxGeometry>
                </mxCell>
                <mxCell id="zGZ7-r_WiMqHJLO-a-PP-82" style="vsdxID=31;edgeStyle=none;startArrow=none;endArrow=none;startSize=5;endSize=5;strokeColor=#000000;spacingTop=-3;spacingBottom=-3;spacingLeft=-3;spacingRight=-3;verticalAlign=middle;html=1;labelBackgroundColor=none;rounded=1;exitX=0.5035460992907801;exitY=0.5;exitDx=0;exitDy=0;exitPerimeter=0;entryX=0.5035460992907801;entryY=0.5;entryDx=0;entryDy=0;entryPerimeter=0;" parent="1" source="zGZ7-r_WiMqHJLO-a-PP-15" target="zGZ7-r_WiMqHJLO-a-PP-16" edge="1">
                    <mxGeometry relative="1" as="geometry">
                        <mxPoint y="-1" as="offset"/>
                        <Array as="points"/>
                    </mxGeometry>
                </mxCell>
                <mxCell id="zGZ7-r_WiMqHJLO-a-PP-83" style="vsdxID=32;edgeStyle=none;startArrow=none;endArrow=none;startSize=5;endSize=5;strokeColor=#000000;spacingTop=-3;spacingBottom=-3;spacingLeft=-3;spacingRight=-3;verticalAlign=middle;html=1;labelBackgroundColor=none;rounded=1;exitX=0.5035460992907801;exitY=0.5142857142857142;exitDx=0;exitDy=0;exitPerimeter=0;entryX=0.5035460992907801;entryY=0.5;entryDx=0;entryDy=0;entryPerimeter=0;" parent="1" source="zGZ7-r_WiMqHJLO-a-PP-14" target="zGZ7-r_WiMqHJLO-a-PP-15" edge="1">
                    <mxGeometry relative="1" as="geometry">
                        <mxPoint y="-1" as="offset"/>
                        <Array as="points"/>
                    </mxGeometry>
                </mxCell>
                <mxCell id="zGZ7-r_WiMqHJLO-a-PP-59" style="vsdxID=40;edgeStyle=none;startArrow=none;endArrow=none;startSize=5;endSize=5;strokeColor=#000000;spacingTop=-3;spacingBottom=-3;spacingLeft=-3;spacingRight=-3;verticalAlign=middle;html=1;labelBackgroundColor=none;rounded=1;exitX=0.5035460992907801;exitY=0.5;exitDx=0;exitDy=0;exitPerimeter=0;entryX=0.5035460992907801;entryY=0.5142857142857142;entryDx=0;entryDy=0;entryPerimeter=0;" parent="1" source="zGZ7-r_WiMqHJLO-a-PP-1" target="zGZ7-r_WiMqHJLO-a-PP-7" edge="1">
                    <mxGeometry relative="1" as="geometry">
                        <mxPoint x="249" y="-1" as="offset"/>
                        <Array as="points"/>
                    </mxGeometry>
                </mxCell>
                <mxCell id="zGZ7-r_WiMqHJLO-a-PP-60" style="vsdxID=39;edgeStyle=none;startArrow=none;endArrow=none;startSize=5;endSize=5;strokeColor=#000000;spacingTop=-3;spacingBottom=-3;spacingLeft=-3;spacingRight=-3;verticalAlign=middle;html=1;labelBackgroundColor=none;rounded=1;exitX=0.5035460992907801;exitY=0.5;exitDx=0;exitDy=0;exitPerimeter=0;entryX=0.49645390070921985;entryY=0.5142857142857142;entryDx=0;entryDy=0;entryPerimeter=0;" parent="1" source="zGZ7-r_WiMqHJLO-a-PP-1" target="zGZ7-r_WiMqHJLO-a-PP-8" edge="1">
                    <mxGeometry relative="1" as="geometry">
                        <mxPoint x="83" y="-1" as="offset"/>
                        <Array as="points"/>
                    </mxGeometry>
                </mxCell>
                <mxCell id="zGZ7-r_WiMqHJLO-a-PP-61" style="vsdxID=38;edgeStyle=none;startArrow=none;endArrow=none;startSize=5;endSize=5;strokeColor=#000000;spacingTop=-3;spacingBottom=-3;spacingLeft=-3;spacingRight=-3;verticalAlign=middle;html=1;labelBackgroundColor=none;rounded=1;exitX=0.5035460992907801;exitY=0.5;exitDx=0;exitDy=0;exitPerimeter=0;entryX=0.5035460992907801;entryY=0.5142857142857142;entryDx=0;entryDy=0;entryPerimeter=0;" parent="1" source="zGZ7-r_WiMqHJLO-a-PP-1" target="zGZ7-r_WiMqHJLO-a-PP-9" edge="1">
                    <mxGeometry relative="1" as="geometry">
                        <mxPoint x="-1" y="-1" as="offset"/>
                        <Array as="points"/>
                    </mxGeometry>
                </mxCell>
                <mxCell id="zGZ7-r_WiMqHJLO-a-PP-62" style="vsdxID=37;edgeStyle=none;startArrow=none;endArrow=none;startSize=5;endSize=5;strokeColor=#000000;spacingTop=-3;spacingBottom=-3;spacingLeft=-3;spacingRight=-3;verticalAlign=middle;html=1;labelBackgroundColor=none;rounded=1;exitX=0.5035460992907801;exitY=0.5;exitDx=0;exitDy=0;exitPerimeter=0;entryX=0.5035460992907801;entryY=0.5142857142857142;entryDx=0;entryDy=0;entryPerimeter=0;" parent="1" source="zGZ7-r_WiMqHJLO-a-PP-1" target="zGZ7-r_WiMqHJLO-a-PP-10" edge="1">
                    <mxGeometry relative="1" as="geometry">
                        <mxPoint x="-1" y="-1" as="offset"/>
                        <Array as="points"/>
                    </mxGeometry>
                </mxCell>
                <mxCell id="zGZ7-r_WiMqHJLO-a-PP-63" style="vsdxID=36;edgeStyle=none;startArrow=none;endArrow=none;startSize=5;endSize=5;strokeColor=#000000;spacingTop=-3;spacingBottom=-3;spacingLeft=-3;spacingRight=-3;verticalAlign=middle;html=1;labelBackgroundColor=none;rounded=1;exitX=0.5035460992907801;exitY=0.5;exitDx=0;exitDy=0;exitPerimeter=0;entryX=0.5035460992907801;entryY=0.5142857142857142;entryDx=0;entryDy=0;entryPerimeter=0;" parent="1" source="zGZ7-r_WiMqHJLO-a-PP-1" target="zGZ7-r_WiMqHJLO-a-PP-11" edge="1">
                    <mxGeometry relative="1" as="geometry">
                        <mxPoint x="-1" y="-1" as="offset"/>
                        <Array as="points"/>
                    </mxGeometry>
                </mxCell>
                <mxCell id="zGZ7-r_WiMqHJLO-a-PP-55" style="vsdxID=12;edgeStyle=none;startArrow=none;endArrow=none;startSize=5;endSize=5;strokeColor=#000000;spacingTop=-3;spacingBottom=-3;spacingLeft=-3;spacingRight=-3;verticalAlign=middle;html=1;labelBackgroundColor=none;rounded=1;exitX=0.49645390070921985;exitY=0.5;exitDx=0;exitDy=0;exitPerimeter=0;entryX=0.49645390070921985;entryY=0.5142857142857142;entryDx=0;entryDy=0;entryPerimeter=0;" parent="1" source="zGZ7-r_WiMqHJLO-a-PP-33" target="zGZ7-r_WiMqHJLO-a-PP-34" edge="1">
                    <mxGeometry relative="1" as="geometry">
                        <mxPoint y="-1" as="offset"/>
                        <Array as="points"/>
                    </mxGeometry>
                </mxCell>
                <mxCell id="zGZ7-r_WiMqHJLO-a-PP-69" style="vsdxID=18;edgeStyle=none;startArrow=none;endArrow=none;startSize=5;endSize=5;strokeColor=#000000;spacingTop=-3;spacingBottom=-3;spacingLeft=-3;spacingRight=-3;verticalAlign=middle;html=1;labelBackgroundColor=none;rounded=1;exitX=0.5035460992907801;exitY=0.5;exitDx=0;exitDy=0;exitPerimeter=0;entryX=0.5035460992907801;entryY=0.5;entryDx=0;entryDy=0;entryPerimeter=0;" parent="1" source="zGZ7-r_WiMqHJLO-a-PP-28" target="zGZ7-r_WiMqHJLO-a-PP-29" edge="1">
                    <mxGeometry relative="1" as="geometry">
                        <mxPoint y="-1" as="offset"/>
                        <Array as="points"/>
                    </mxGeometry>
                </mxCell>
                <mxCell id="zGZ7-r_WiMqHJLO-a-PP-70" style="vsdxID=19;edgeStyle=none;startArrow=none;endArrow=none;startSize=5;endSize=5;strokeColor=#000000;spacingTop=-3;spacingBottom=-3;spacingLeft=-3;spacingRight=-3;verticalAlign=middle;html=1;labelBackgroundColor=none;rounded=1;exitX=0.5035460992907801;exitY=0.5142857142857142;exitDx=0;exitDy=0;exitPerimeter=0;entryX=0.5035460992907801;entryY=0.5;entryDx=0;entryDy=0;entryPerimeter=0;" parent="1" source="zGZ7-r_WiMqHJLO-a-PP-27" target="zGZ7-r_WiMqHJLO-a-PP-28" edge="1">
                    <mxGeometry relative="1" as="geometry">
                        <mxPoint y="-1" as="offset"/>
                        <Array as="points"/>
                    </mxGeometry>
                </mxCell>
                <mxCell id="zGZ7-r_WiMqHJLO-a-PP-71" style="vsdxID=20;edgeStyle=none;startArrow=none;endArrow=none;startSize=5;endSize=5;strokeColor=#000000;spacingTop=-3;spacingBottom=-3;spacingLeft=-3;spacingRight=-3;verticalAlign=middle;html=1;labelBackgroundColor=none;rounded=1;exitX=0.5035460992907801;exitY=0.5;exitDx=0;exitDy=0;exitPerimeter=0;entryX=0.5035460992907801;entryY=0.5142857142857142;entryDx=0;entryDy=0;entryPerimeter=0;" parent="1" source="zGZ7-r_WiMqHJLO-a-PP-26" target="zGZ7-r_WiMqHJLO-a-PP-27" edge="1">
                    <mxGeometry relative="1" as="geometry">
                        <mxPoint y="-1" as="offset"/>
                        <Array as="points"/>
                    </mxGeometry>
                </mxCell>
                <mxCell id="zGZ7-r_WiMqHJLO-a-PP-72" style="vsdxID=21;edgeStyle=none;startArrow=none;endArrow=none;startSize=5;endSize=5;strokeColor=#000000;spacingTop=-3;spacingBottom=-3;spacingLeft=-3;spacingRight=-3;verticalAlign=middle;html=1;labelBackgroundColor=none;rounded=1;exitX=0.5035460992907801;exitY=0.5;exitDx=0;exitDy=0;exitPerimeter=0;entryX=0.5035460992907801;entryY=0.5;entryDx=0;entryDy=0;entryPerimeter=0;" parent="1" source="zGZ7-r_WiMqHJLO-a-PP-25" target="zGZ7-r_WiMqHJLO-a-PP-26" edge="1">
                    <mxGeometry relative="1" as="geometry">
                        <mxPoint y="-1" as="offset"/>
                        <Array as="points"/>
                    </mxGeometry>
                </mxCell>
                <mxCell id="zGZ7-r_WiMqHJLO-a-PP-73" style="vsdxID=22;edgeStyle=none;startArrow=none;endArrow=none;startSize=5;endSize=5;strokeColor=#000000;spacingTop=-3;spacingBottom=-3;spacingLeft=-3;spacingRight=-3;verticalAlign=middle;html=1;labelBackgroundColor=none;rounded=1;exitX=0.5035460992907801;exitY=0.5142857142857142;exitDx=0;exitDy=0;exitPerimeter=0;entryX=0.5035460992907801;entryY=0.5;entryDx=0;entryDy=0;entryPerimeter=0;" parent="1" source="zGZ7-r_WiMqHJLO-a-PP-7" target="zGZ7-r_WiMqHJLO-a-PP-25" edge="1">
                    <mxGeometry relative="1" as="geometry">
                        <mxPoint y="-1" as="offset"/>
                        <Array as="points"/>
                    </mxGeometry>
                </mxCell>
                <mxCell id="zGZ7-r_WiMqHJLO-a-PP-56" style="vsdxID=13;edgeStyle=none;startArrow=none;endArrow=none;startSize=5;endSize=5;strokeColor=#000000;spacingTop=-3;spacingBottom=-3;spacingLeft=-3;spacingRight=-3;verticalAlign=middle;html=1;labelBackgroundColor=none;rounded=1;exitX=0.49645390070921985;exitY=0.5;exitDx=0;exitDy=0;exitPerimeter=0;entryX=0.49645390070921985;entryY=0.5;entryDx=0;entryDy=0;entryPerimeter=0;" parent="1" source="zGZ7-r_WiMqHJLO-a-PP-32" target="zGZ7-r_WiMqHJLO-a-PP-33" edge="1">
                    <mxGeometry relative="1" as="geometry">
                        <mxPoint y="-1" as="offset"/>
                        <Array as="points"/>
                    </mxGeometry>
                </mxCell>
                <mxCell id="zGZ7-r_WiMqHJLO-a-PP-57" style="vsdxID=14;edgeStyle=none;startArrow=none;endArrow=none;startSize=5;endSize=5;strokeColor=#000000;spacingTop=-3;spacingBottom=-3;spacingLeft=-3;spacingRight=-3;verticalAlign=middle;html=1;labelBackgroundColor=none;rounded=1;exitX=0.49645390070921985;exitY=0.5142857142857142;exitDx=0;exitDy=0;exitPerimeter=0;entryX=0.49645390070921985;entryY=0.5;entryDx=0;entryDy=0;entryPerimeter=0;" parent="1" source="zGZ7-r_WiMqHJLO-a-PP-31" target="zGZ7-r_WiMqHJLO-a-PP-32" edge="1">
                    <mxGeometry relative="1" as="geometry">
                        <mxPoint y="-1" as="offset"/>
                        <Array as="points"/>
                    </mxGeometry>
                </mxCell>
                <mxCell id="zGZ7-r_WiMqHJLO-a-PP-58" style="vsdxID=15;edgeStyle=none;startArrow=none;endArrow=none;startSize=5;endSize=5;strokeColor=#000000;spacingTop=-3;spacingBottom=-3;spacingLeft=-3;spacingRight=-3;verticalAlign=middle;html=1;labelBackgroundColor=none;rounded=1;exitX=0.49645390070921985;exitY=0.5;exitDx=0;exitDy=0;exitPerimeter=0;entryX=0.49645390070921985;entryY=0.5142857142857142;entryDx=0;entryDy=0;entryPerimeter=0;" parent="1" source="zGZ7-r_WiMqHJLO-a-PP-30" target="zGZ7-r_WiMqHJLO-a-PP-31" edge="1">
                    <mxGeometry relative="1" as="geometry">
                        <mxPoint y="-1" as="offset"/>
                        <Array as="points"/>
                    </mxGeometry>
                </mxCell>
                <mxCell id="zGZ7-r_WiMqHJLO-a-PP-67" style="vsdxID=16;edgeStyle=none;startArrow=none;endArrow=none;startSize=5;endSize=5;strokeColor=#000000;spacingTop=-3;spacingBottom=-3;spacingLeft=-3;spacingRight=-3;verticalAlign=middle;html=1;labelBackgroundColor=none;rounded=1;exitX=0.49645390070921985;exitY=0.5;exitDx=0;exitDy=0;exitPerimeter=0;entryX=0.49645390070921985;entryY=0.5;entryDx=0;entryDy=0;entryPerimeter=0;" parent="1" source="zGZ7-r_WiMqHJLO-a-PP-6" target="zGZ7-r_WiMqHJLO-a-PP-30" edge="1">
                    <mxGeometry relative="1" as="geometry">
                        <mxPoint y="-1" as="offset"/>
                        <Array as="points"/>
                    </mxGeometry>
                </mxCell>
                <mxCell id="zGZ7-r_WiMqHJLO-a-PP-68" style="vsdxID=17;edgeStyle=none;startArrow=none;endArrow=none;startSize=5;endSize=5;strokeColor=#000000;spacingTop=-3;spacingBottom=-3;spacingLeft=-3;spacingRight=-3;verticalAlign=middle;html=1;labelBackgroundColor=none;rounded=1;exitX=0.49645390070921985;exitY=0.5142857142857142;exitDx=0;exitDy=0;exitPerimeter=0;entryX=0.49645390070921985;entryY=0.5;entryDx=0;entryDy=0;entryPerimeter=0;" parent="1" source="zGZ7-r_WiMqHJLO-a-PP-5" target="zGZ7-r_WiMqHJLO-a-PP-6" edge="1">
                    <mxGeometry relative="1" as="geometry">
                        <mxPoint y="-1" as="offset"/>
                        <Array as="points"/>
                    </mxGeometry>
                </mxCell>
                <mxCell id="zGZ7-r_WiMqHJLO-a-PP-51" style="vsdxID=8;edgeStyle=none;startArrow=none;endArrow=none;startSize=5;endSize=5;strokeColor=#000000;spacingTop=-3;spacingBottom=-3;spacingLeft=-3;spacingRight=-3;verticalAlign=middle;html=1;labelBackgroundColor=none;rounded=1;exitX=0.5035460992907801;exitY=0.5;exitDx=0;exitDy=0;exitPerimeter=0;entryX=0.49645390070921985;entryY=0.5142857142857142;entryDx=0;entryDy=0;entryPerimeter=0;" parent="1" source="zGZ7-r_WiMqHJLO-a-PP-1" target="zGZ7-r_WiMqHJLO-a-PP-5" edge="1">
                    <mxGeometry relative="1" as="geometry">
                        <mxPoint x="416" y="-1" as="offset"/>
                        <Array as="points"/>
                    </mxGeometry>
                </mxCell>
                <mxCell id="zGZ7-r_WiMqHJLO-a-PP-1" value="&lt;p style=&quot;align:center;margin-left:0;margin-right:0;margin-top:0px;margin-bottom:0px;text-indent:0;valign:middle;direction:ltr;&quot;&gt;&lt;font style=&quot;font-size:18px;font-family:Helvetica Neue;color:#000000;direction:ltr;letter-spacing:0px;line-height:120%;opacity:1&quot;&gt;Admin App&lt;/font&gt;&lt;/p&gt;" style="verticalAlign=middle;align=center;vsdxID=41;fillColor=#ffffbf;gradientColor=none;shape=stencil(nZFdDsIgEIRPs69mAY0HqPUCnoDIKhsRGtr6d3ppNyZofCpPOzPfZpMBTNN72xFo7IecLnRnN3gwO9Cao6fMQ5nAtGCaU8p0zmmMTnRnC6lxdsjJjppojTYfD/wi8bYr3JSncC2hbF/Tbbr6EAYletZqL2DgWIEKF6Mf/RdejH6BZZhbkb44BCm1zn9bLJb8gGnf);strokeColor=#000000;spacingTop=1;spacingBottom=1;spacingLeft=1;spacingRight=1;labelBackgroundColor=none;rounded=1;html=1;whiteSpace=wrap;" parent="1" vertex="1">
                    <mxGeometry x="417" y="1" width="141" height="70" as="geometry"/>
                </mxCell>
                <mxCell id="zGZ7-r_WiMqHJLO-a-PP-2" value="&lt;p style=&quot;align:center;margin-left:0;margin-right:0;margin-top:0px;margin-bottom:0px;text-indent:0;valign:middle;direction:ltr;&quot;&gt;&lt;font style=&quot;font-size:18px;font-family:Helvetica Neue;color:#000000;direction:ltr;letter-spacing:0px;line-height:120%;opacity:1&quot;&gt;Pupil Check&lt;/font&gt;&lt;/p&gt;" style="verticalAlign=middle;align=center;vsdxID=42;fillColor=#ffffbf;gradientColor=none;shape=stencil(nZFdDsIgEIRPs69mAY0HqPUCnoDIKhsRGtr6d3ppNyZofCpPOzPfZpMBTNN72xFo7IecLnRnN3gwO9Cao6fMQ5nAtGCaU8p0zmmMTnRnC6lxdsjJjppojTYfD/wi8bYr3JSncC2hbF/Tbbr6EAYletZqL2DgWIEKF6Mf/RdejH6BZZhbkb44BCm1zn9bLJb8gGnf);strokeColor=#000000;spacingTop=1;spacingBottom=1;spacingLeft=1;spacingRight=1;labelBackgroundColor=none;rounded=1;html=1;whiteSpace=wrap;" parent="1" vertex="1">
                    <mxGeometry x="1000" y="1" width="141" height="70" as="geometry"/>
                </mxCell>
                <mxCell id="zGZ7-r_WiMqHJLO-a-PP-3" value="&lt;p style=&quot;align:center;margin-left:0;margin-right:0;margin-top:0px;margin-bottom:0px;text-indent:0;valign:middle;direction:ltr;&quot;&gt;&lt;font style=&quot;font-size:18px;font-family:Helvetica Neue;color:#000000;direction:ltr;letter-spacing:0px;line-height:120%;opacity:1&quot;&gt;Backend Processing&lt;/font&gt;&lt;/p&gt;" style="verticalAlign=middle;align=center;vsdxID=43;fillColor=#ffffbf;gradientColor=none;shape=stencil(nZFdDsIgEIRPs69mAY0HqPUCnoDIKhsRGtr6d3ppNyZofCpPOzPfZpMBTNN72xFo7IecLnRnN3gwO9Cao6fMQ5nAtGCaU8p0zmmMTnRnC6lxdsjJjppojTYfD/wi8bYr3JSncC2hbF/Tbbr6EAYletZqL2DgWIEKF6Mf/RdejH6BZZhbkb44BCm1zn9bLJb8gGnf);strokeColor=#000000;spacingTop=1;spacingBottom=1;spacingLeft=1;spacingRight=1;labelBackgroundColor=none;rounded=1;html=1;whiteSpace=wrap;" parent="1" vertex="1">
                    <mxGeometry x="1166" y="1" width="141" height="70" as="geometry"/>
                </mxCell>
                <mxCell id="zGZ7-r_WiMqHJLO-a-PP-4" value="&lt;p style=&quot;align:center;margin-left:0;margin-right:0;margin-top:0px;margin-bottom:0px;text-indent:0;valign:middle;direction:ltr;&quot;&gt;&lt;font style=&quot;font-size:18px;font-family:Helvetica Neue;color:#000000;direction:ltr;letter-spacing:0px;line-height:120%;opacity:1&quot;&gt;Pupil&lt;/font&gt;&lt;/p&gt;" style="verticalAlign=middle;align=center;vsdxID=44;fillColor=#bfffbf;gradientColor=none;shape=stencil(nZFdDsIgEIRPs69mAY0HqPUCnoDIKhsRGtr6d3ppNyZofCpPOzPfZpMBTNN72xFo7IecLnRnN3gwO9Cao6fMQ5nAtGCaU8p0zmmMTnRnC6lxdsjJjppojTYfD/wi8bYr3JSncC2hbF/Tbbr6EAYletZqL2DgWIEKF6Mf/RdejH6BZZhbkb44BCm1zn9bLJb8gGnf);strokeColor=#000000;spacingTop=1;spacingBottom=1;spacingLeft=1;spacingRight=1;labelBackgroundColor=none;rounded=1;html=1;whiteSpace=wrap;" parent="1" vertex="1">
                    <mxGeometry x="1000" y="122" width="141" height="70" as="geometry"/>
                </mxCell>
                <mxCell id="zGZ7-r_WiMqHJLO-a-PP-5" value="&lt;p style=&quot;align:center;margin-left:0;margin-right:0;margin-top:0px;margin-bottom:0px;text-indent:0;valign:middle;direction:ltr;&quot;&gt;&lt;font style=&quot;font-size:18px;font-family:Helvetica Neue;color:#000000;direction:ltr;letter-spacing:0px;line-height:120%;opacity:1&quot;&gt;Teacher&lt;/font&gt;&lt;/p&gt;" style="verticalAlign=middle;align=center;vsdxID=45;fillColor=#bfffbf;gradientColor=none;shape=stencil(nZFdDsIgEIRPs69mAY0HqPUCnoDIKhsRGtr6d3ppNyZofCpPOzPfZpMBTNN72xFo7IecLnRnN3gwO9Cao6fMQ5nAtGCaU8p0zmmMTnRnC6lxdsjJjppojTYfD/wi8bYr3JSncC2hbF/Tbbr6EAYletZqL2DgWIEKF6Mf/RdejH6BZZhbkb44BCm1zn9bLJb8gGnf);strokeColor=#000000;spacingTop=1;spacingBottom=1;spacingLeft=1;spacingRight=1;labelBackgroundColor=none;rounded=1;html=1;whiteSpace=wrap;" parent="1" vertex="1">
                    <mxGeometry x="1" y="122" width="141" height="70" as="geometry"/>
                </mxCell>
                <mxCell id="zGZ7-r_WiMqHJLO-a-PP-6" value="&lt;p style=&quot;align:center;margin-left:0;margin-right:0;margin-top:0px;margin-bottom:0px;text-indent:0;valign:middle;direction:ltr;&quot;&gt;&lt;font style=&quot;font-size:18px;font-family:Helvetica Neue;color:#000000;direction:ltr;letter-spacing:0px;line-height:120%;opacity:1&quot;&gt;Create Check (Try it out)&lt;/font&gt;&lt;/p&gt;" style="verticalAlign=middle;align=center;vsdxID=46;fillColor=#bfbfff;gradientColor=none;shape=stencil(nZFdDsIgEIRPs69mAY0HqPUCnoDIKhsRGtr6d3ppNyZofCpPOzPfZpMBTNN72xFo7IecLnRnN3gwO9Cao6fMQ5nAtGCaU8p0zmmMTnRnC6lxdsjJjppojTYfD/wi8bYr3JSncC2hbF/Tbbr6EAYletZqL2DgWIEKF6Mf/RdejH6BZZhbkb44BCm1zn9bLJb8gGnf);strokeColor=#000000;spacingTop=1;spacingBottom=1;spacingLeft=1;spacingRight=1;labelBackgroundColor=none;rounded=1;html=1;whiteSpace=wrap;" parent="1" vertex="1">
                    <mxGeometry x="1" y="244" width="141" height="70" as="geometry"/>
                </mxCell>
                <mxCell id="zGZ7-r_WiMqHJLO-a-PP-7" value="&lt;p style=&quot;align:center;margin-left:0;margin-right:0;margin-top:0px;margin-bottom:0px;text-indent:0;valign:middle;direction:ltr;&quot;&gt;&lt;font style=&quot;font-size:18px;font-family:Helvetica Neue;color:#000000;direction:ltr;letter-spacing:0px;line-height:120%;opacity:1&quot;&gt;Teacher (cont.)&lt;/font&gt;&lt;/p&gt;" style="verticalAlign=middle;align=center;vsdxID=47;fillColor=#bfffbf;gradientColor=none;shape=stencil(nZFdDsIgEIRPs69mAY0HqPUCnoDIKhsRGtr6d3ppNyZofCpPOzPfZpMBTNN72xFo7IecLnRnN3gwO9Cao6fMQ5nAtGCaU8p0zmmMTnRnC6lxdsjJjppojTYfD/wi8bYr3JSncC2hbF/Tbbr6EAYletZqL2DgWIEKF6Mf/RdejH6BZZhbkb44BCm1zn9bLJb8gGnf);strokeColor=#000000;spacingTop=1;spacingBottom=1;spacingLeft=1;spacingRight=1;labelBackgroundColor=none;rounded=1;html=1;whiteSpace=wrap;" parent="1" vertex="1">
                    <mxGeometry x="167" y="122" width="141" height="70" as="geometry"/>
                </mxCell>
                <mxCell id="zGZ7-r_WiMqHJLO-a-PP-8" value="&lt;p style=&quot;align:center;margin-left:0;margin-right:0;margin-top:0px;margin-bottom:0px;text-indent:0;valign:middle;direction:ltr;&quot;&gt;&lt;font style=&quot;font-size:18px;font-family:Helvetica Neue;color:#000000;direction:ltr;letter-spacing:0px;line-height:120%;opacity:1&quot;&gt;Test Development&lt;/font&gt;&lt;/p&gt;" style="verticalAlign=middle;align=center;vsdxID=48;fillColor=#bfffbf;gradientColor=none;shape=stencil(nZFdDsIgEIRPs69mAY0HqPUCnoDIKhsRGtr6d3ppNyZofCpPOzPfZpMBTNN72xFo7IecLnRnN3gwO9Cao6fMQ5nAtGCaU8p0zmmMTnRnC6lxdsjJjppojTYfD/wi8bYr3JSncC2hbF/Tbbr6EAYletZqL2DgWIEKF6Mf/RdejH6BZZhbkb44BCm1zn9bLJb8gGnf);strokeColor=#000000;spacingTop=1;spacingBottom=1;spacingLeft=1;spacingRight=1;labelBackgroundColor=none;rounded=1;html=1;whiteSpace=wrap;" parent="1" vertex="1">
                    <mxGeometry x="334" y="122" width="141" height="70" as="geometry"/>
                </mxCell>
                <mxCell id="zGZ7-r_WiMqHJLO-a-PP-9" value="&lt;p style=&quot;align:center;margin-left:0;margin-right:0;margin-top:0px;margin-bottom:0px;text-indent:0;valign:middle;direction:ltr;&quot;&gt;&lt;font style=&quot;font-size:18px;font-family:Helvetica Neue;color:#000000;direction:ltr;letter-spacing:0px;line-height:120%;opacity:1&quot;&gt;Service Manager&lt;/font&gt;&lt;/p&gt;" style="verticalAlign=middle;align=center;vsdxID=49;fillColor=#bfffbf;gradientColor=none;shape=stencil(nZFdDsIgEIRPs69mAY0HqPUCnoDIKhsRGtr6d3ppNyZofCpPOzPfZpMBTNN72xFo7IecLnRnN3gwO9Cao6fMQ5nAtGCaU8p0zmmMTnRnC6lxdsjJjppojTYfD/wi8bYr3JSncC2hbF/Tbbr6EAYletZqL2DgWIEKF6Mf/RdejH6BZZhbkb44BCm1zn9bLJb8gGnf);strokeColor=#000000;spacingTop=1;spacingBottom=1;spacingLeft=1;spacingRight=1;labelBackgroundColor=none;rounded=1;html=1;whiteSpace=wrap;" parent="1" vertex="1">
                    <mxGeometry x="500" y="122" width="141" height="70" as="geometry"/>
                </mxCell>
                <mxCell id="zGZ7-r_WiMqHJLO-a-PP-10" value="&lt;p style=&quot;align:center;margin-left:0;margin-right:0;margin-top:0px;margin-bottom:0px;text-indent:0;valign:middle;direction:ltr;&quot;&gt;&lt;font style=&quot;font-size:18px;font-family:Helvetica Neue;color:#000000;direction:ltr;letter-spacing:0px;line-height:120%;opacity:1&quot;&gt;Helpdesk&lt;/font&gt;&lt;/p&gt;" style="verticalAlign=middle;align=center;vsdxID=50;fillColor=#bfffbf;gradientColor=none;shape=stencil(nZFdDsIgEIRPs69mAY0HqPUCnoDIKhsRGtr6d3ppNyZofCpPOzPfZpMBTNN72xFo7IecLnRnN3gwO9Cao6fMQ5nAtGCaU8p0zmmMTnRnC6lxdsjJjppojTYfD/wi8bYr3JSncC2hbF/Tbbr6EAYletZqL2DgWIEKF6Mf/RdejH6BZZhbkb44BCm1zn9bLJb8gGnf);strokeColor=#000000;spacingTop=1;spacingBottom=1;spacingLeft=1;spacingRight=1;labelBackgroundColor=none;rounded=1;html=1;whiteSpace=wrap;" parent="1" vertex="1">
                    <mxGeometry x="667" y="122" width="141" height="70" as="geometry"/>
                </mxCell>
                <mxCell id="zGZ7-r_WiMqHJLO-a-PP-11" value="&lt;p style=&quot;align:center;margin-left:0;margin-right:0;margin-top:0px;margin-bottom:0px;text-indent:0;valign:middle;direction:ltr;&quot;&gt;&lt;font style=&quot;font-size:18px;font-family:Helvetica Neue;color:#000000;direction:ltr;letter-spacing:0px;line-height:120%;opacity:1&quot;&gt;Tech Support&lt;/font&gt;&lt;/p&gt;" style="verticalAlign=middle;align=center;vsdxID=51;fillColor=#bfffbf;gradientColor=none;shape=stencil(nZFdDsIgEIRPs69mAY0HqPUCnoDIKhsRGtr6d3ppNyZofCpPOzPfZpMBTNN72xFo7IecLnRnN3gwO9Cao6fMQ5nAtGCaU8p0zmmMTnRnC6lxdsjJjppojTYfD/wi8bYr3JSncC2hbF/Tbbr6EAYletZqL2DgWIEKF6Mf/RdejH6BZZhbkb44BCm1zn9bLJb8gGnf);strokeColor=#000000;spacingTop=1;spacingBottom=1;spacingLeft=1;spacingRight=1;labelBackgroundColor=none;rounded=1;html=1;whiteSpace=wrap;" parent="1" vertex="1">
                    <mxGeometry x="833" y="122" width="141" height="70" as="geometry"/>
                </mxCell>
                <mxCell id="zGZ7-r_WiMqHJLO-a-PP-12" value="&lt;p style=&quot;align:center;margin-left:0;margin-right:0;margin-top:0px;margin-bottom:0px;text-indent:0;valign:middle;direction:ltr;&quot;&gt;&lt;font style=&quot;font-size:18px;font-family:Helvetica Neue;color:#000000;direction:ltr;letter-spacing:0px;line-height:120%;opacity:1&quot;&gt;Manage Check Window&lt;/font&gt;&lt;/p&gt;" style="verticalAlign=middle;align=center;vsdxID=52;fillColor=#bfbfff;gradientColor=none;shape=stencil(nZFdDsIgEIRPs69mAY0HqPUCnoDIKhsRGtr6d3ppNyZofCpPOzPfZpMBTNN72xFo7IecLnRnN3gwO9Cao6fMQ5nAtGCaU8p0zmmMTnRnC6lxdsjJjppojTYfD/wi8bYr3JSncC2hbF/Tbbr6EAYletZqL2DgWIEKF6Mf/RdejH6BZZhbkb44BCm1zn9bLJb8gGnf);strokeColor=#000000;spacingTop=1;spacingBottom=1;spacingLeft=1;spacingRight=1;labelBackgroundColor=none;rounded=1;html=1;whiteSpace=wrap;" parent="1" vertex="1">
                    <mxGeometry x="500" y="244" width="141" height="70" as="geometry"/>
                </mxCell>
                <mxCell id="zGZ7-r_WiMqHJLO-a-PP-13" value="&lt;p style=&quot;align:center;margin-left:0;margin-right:0;margin-top:0px;margin-bottom:0px;text-indent:0;valign:middle;direction:ltr;&quot;&gt;&lt;font style=&quot;font-size:18px;font-family:Helvetica Neue;color:#000000;direction:ltr;letter-spacing:0px;line-height:120%;opacity:1&quot;&gt;Upload Pupil Census&lt;/font&gt;&lt;/p&gt;" style="verticalAlign=middle;align=center;vsdxID=53;fillColor=#bfbfff;gradientColor=none;shape=stencil(nZFdDsIgEIRPs69mAY0HqPUCnoDIKhsRGtr6d3ppNyZofCpPOzPfZpMBTNN72xFo7IecLnRnN3gwO9Cao6fMQ5nAtGCaU8p0zmmMTnRnC6lxdsjJjppojTYfD/wi8bYr3JSncC2hbF/Tbbr6EAYletZqL2DgWIEKF6Mf/RdejH6BZZhbkb44BCm1zn9bLJb8gGnf);strokeColor=#000000;spacingTop=1;spacingBottom=1;spacingLeft=1;spacingRight=1;labelBackgroundColor=none;rounded=1;html=1;whiteSpace=wrap;" parent="1" vertex="1">
                    <mxGeometry x="500" y="365" width="141" height="70" as="geometry"/>
                </mxCell>
                <mxCell id="zGZ7-r_WiMqHJLO-a-PP-14" value="&lt;p style=&quot;align:center;margin-left:0;margin-right:0;margin-top:0px;margin-bottom:0px;text-indent:0;valign:middle;direction:ltr;&quot;&gt;&lt;font style=&quot;font-size:18px;font-family:Helvetica Neue;color:#000000;direction:ltr;letter-spacing:0px;line-height:120%;opacity:1&quot;&gt;Check Settings&lt;/font&gt;&lt;/p&gt;" style="verticalAlign=middle;align=center;vsdxID=54;fillColor=#bfbfff;gradientColor=none;shape=stencil(nZFdDsIgEIRPs69mAY0HqPUCnoDIKhsRGtr6d3ppNyZofCpPOzPfZpMBTNN72xFo7IecLnRnN3gwO9Cao6fMQ5nAtGCaU8p0zmmMTnRnC6lxdsjJjppojTYfD/wi8bYr3JSncC2hbF/Tbbr6EAYletZqL2DgWIEKF6Mf/RdejH6BZZhbkb44BCm1zn9bLJb8gGnf);strokeColor=#000000;spacingTop=1;spacingBottom=1;spacingLeft=1;spacingRight=1;labelBackgroundColor=none;rounded=1;html=1;whiteSpace=wrap;" parent="1" vertex="1">
                    <mxGeometry x="500" y="486" width="141" height="70" as="geometry"/>
                </mxCell>
                <mxCell id="zGZ7-r_WiMqHJLO-a-PP-15" value="&lt;p style=&quot;align:center;margin-left:0;margin-right:0;margin-top:0px;margin-bottom:0px;text-indent:0;valign:middle;direction:ltr;&quot;&gt;&lt;font style=&quot;font-size:18px;font-family:Helvetica Neue;color:#000000;direction:ltr;letter-spacing:0px;line-height:120%;opacity:1&quot;&gt;Page Settings&lt;/font&gt;&lt;/p&gt;" style="verticalAlign=middle;align=center;vsdxID=55;fillColor=#bfbfff;gradientColor=none;shape=stencil(nZFdDsIgEIRPs69mAY0HqPUCnoDIKhsRGtr6d3ppNyZofCpPOzPfZpMBTNN72xFo7IecLnRnN3gwO9Cao6fMQ5nAtGCaU8p0zmmMTnRnC6lxdsjJjppojTYfD/wi8bYr3JSncC2hbF/Tbbr6EAYletZqL2DgWIEKF6Mf/RdejH6BZZhbkb44BCm1zn9bLJb8gGnf);strokeColor=#000000;spacingTop=1;spacingBottom=1;spacingLeft=1;spacingRight=1;labelBackgroundColor=none;rounded=1;html=1;whiteSpace=wrap;" parent="1" vertex="1">
                    <mxGeometry x="500" y="608" width="141" height="70" as="geometry"/>
                </mxCell>
                <mxCell id="zGZ7-r_WiMqHJLO-a-PP-16" value="&lt;p style=&quot;align:center;margin-left:0;margin-right:0;margin-top:0px;margin-bottom:0px;text-indent:0;valign:middle;direction:ltr;&quot;&gt;&lt;font style=&quot;font-size:18px;font-family:Helvetica Neue;color:#000000;direction:ltr;letter-spacing:0px;line-height:120%;opacity:1&quot;&gt;School Timezones&lt;/font&gt;&lt;/p&gt;" style="verticalAlign=middle;align=center;vsdxID=56;fillColor=#bfbfff;gradientColor=none;shape=stencil(nZFdDsIgEIRPs69mAY0HqPUCnoDIKhsRGtr6d3ppNyZofCpPOzPfZpMBTNN72xFo7IecLnRnN3gwO9Cao6fMQ5nAtGCaU8p0zmmMTnRnC6lxdsjJjppojTYfD/wi8bYr3JSncC2hbF/Tbbr6EAYletZqL2DgWIEKF6Mf/RdejH6BZZhbkb44BCm1zn9bLJb8gGnf);strokeColor=#000000;spacingTop=1;spacingBottom=1;spacingLeft=1;spacingRight=1;labelBackgroundColor=none;rounded=1;html=1;whiteSpace=wrap;" parent="1" vertex="1">
                    <mxGeometry x="500" y="729" width="141" height="70" as="geometry"/>
                </mxCell>
                <mxCell id="zGZ7-r_WiMqHJLO-a-PP-17" value="&lt;p style=&quot;align:center;margin-left:0;margin-right:0;margin-top:0px;margin-bottom:0px;text-indent:0;valign:middle;direction:ltr;&quot;&gt;&lt;font style=&quot;font-size:18px;font-family:Helvetica Neue;color:#000000;direction:ltr;letter-spacing:0px;line-height:120%;opacity:1&quot;&gt;Service Messages&lt;/font&gt;&lt;/p&gt;" style="verticalAlign=middle;align=center;vsdxID=57;fillColor=#bfbfff;gradientColor=none;shape=stencil(nZFdDsIgEIRPs69mAY0HqPUCnoDIKhsRGtr6d3ppNyZofCpPOzPfZpMBTNN72xFo7IecLnRnN3gwO9Cao6fMQ5nAtGCaU8p0zmmMTnRnC6lxdsjJjppojTYfD/wi8bYr3JSncC2hbF/Tbbr6EAYletZqL2DgWIEKF6Mf/RdejH6BZZhbkb44BCm1zn9bLJb8gGnf);strokeColor=#000000;spacingTop=1;spacingBottom=1;spacingLeft=1;spacingRight=1;labelBackgroundColor=none;rounded=1;html=1;whiteSpace=wrap;" parent="1" vertex="1">
                    <mxGeometry x="500" y="850" width="141" height="70" as="geometry"/>
                </mxCell>
                <mxCell id="zGZ7-r_WiMqHJLO-a-PP-18" value="&lt;p style=&quot;align:center;margin-left:0;margin-right:0;margin-top:0px;margin-bottom:0px;text-indent:0;valign:middle;direction:ltr;&quot;&gt;&lt;font style=&quot;font-size:18px;font-family:Helvetica Neue;color:#000000;direction:ltr;letter-spacing:0px;line-height:120%;opacity:1&quot;&gt;Manage Check Forms&lt;/font&gt;&lt;/p&gt;" style="verticalAlign=middle;align=center;vsdxID=58;fillColor=#bfbfff;gradientColor=none;shape=stencil(nZFdDsIgEIRPs69mAY0HqPUCnoDIKhsRGtr6d3ppNyZofCpPOzPfZpMBTNN72xFo7IecLnRnN3gwO9Cao6fMQ5nAtGCaU8p0zmmMTnRnC6lxdsjJjppojTYfD/wi8bYr3JSncC2hbF/Tbbr6EAYletZqL2DgWIEKF6Mf/RdejH6BZZhbkb44BCm1zn9bLJb8gGnf);strokeColor=#000000;spacingTop=1;spacingBottom=1;spacingLeft=1;spacingRight=1;labelBackgroundColor=none;rounded=1;html=1;whiteSpace=wrap;" parent="1" vertex="1">
                    <mxGeometry x="334" y="244" width="141" height="70" as="geometry"/>
                </mxCell>
                <mxCell id="zGZ7-r_WiMqHJLO-a-PP-19" value="&lt;p style=&quot;align:center;margin-left:0;margin-right:0;margin-top:0px;margin-bottom:0px;text-indent:0;valign:middle;direction:ltr;&quot;&gt;&lt;font style=&quot;font-size:18px;font-family:Helvetica Neue;color:#000000;direction:ltr;letter-spacing:0px;line-height:120%;opacity:1&quot;&gt;Check Form Assignment&lt;/font&gt;&lt;/p&gt;" style="verticalAlign=middle;align=center;vsdxID=59;fillColor=#bfbfff;gradientColor=none;shape=stencil(nZFdDsIgEIRPs69mAY0HqPUCnoDIKhsRGtr6d3ppNyZofCpPOzPfZpMBTNN72xFo7IecLnRnN3gwO9Cao6fMQ5nAtGCaU8p0zmmMTnRnC6lxdsjJjppojTYfD/wi8bYr3JSncC2hbF/Tbbr6EAYletZqL2DgWIEKF6Mf/RdejH6BZZhbkb44BCm1zn9bLJb8gGnf);strokeColor=#000000;spacingTop=1;spacingBottom=1;spacingLeft=1;spacingRight=1;labelBackgroundColor=none;rounded=1;html=1;whiteSpace=wrap;" parent="1" vertex="1">
                    <mxGeometry x="334" y="365" width="141" height="70" as="geometry"/>
                </mxCell>
                <mxCell id="zGZ7-r_WiMqHJLO-a-PP-20" value="&lt;p style=&quot;align:center;margin-left:0;margin-right:0;margin-top:0px;margin-bottom:0px;text-indent:0;valign:middle;direction:ltr;&quot;&gt;&lt;font style=&quot;font-size:18px;font-family:Helvetica Neue;color:#000000;direction:ltr;letter-spacing:0px;line-height:120%;opacity:1&quot;&gt;Download Raw Check Data&lt;/font&gt;&lt;/p&gt;" style="verticalAlign=middle;align=center;vsdxID=60;fillColor=#bfbfff;gradientColor=none;shape=stencil(nZFdDsIgEIRPs69mAY0HqPUCnoDIKhsRGtr6d3ppNyZofCpPOzPfZpMBTNN72xFo7IecLnRnN3gwO9Cao6fMQ5nAtGCaU8p0zmmMTnRnC6lxdsjJjppojTYfD/wi8bYr3JSncC2hbF/Tbbr6EAYletZqL2DgWIEKF6Mf/RdejH6BZZhbkb44BCm1zn9bLJb8gGnf);strokeColor=#000000;spacingTop=1;spacingBottom=1;spacingLeft=1;spacingRight=1;labelBackgroundColor=none;rounded=1;html=1;whiteSpace=wrap;" parent="1" vertex="1">
                    <mxGeometry x="334" y="486" width="141" height="70" as="geometry"/>
                </mxCell>
                <mxCell id="zGZ7-r_WiMqHJLO-a-PP-21" value="&lt;p style=&quot;align:center;margin-left:0;margin-right:0;margin-top:0px;margin-bottom:0px;text-indent:0;valign:middle;direction:ltr;&quot;&gt;&lt;font style=&quot;font-size:18px;font-family:Helvetica Neue;color:#000000;direction:ltr;letter-spacing:0px;line-height:120%;opacity:1&quot;&gt;Pupil Check Payload Viewer&lt;/font&gt;&lt;/p&gt;" style="verticalAlign=middle;align=center;vsdxID=61;fillColor=#bfbfff;gradientColor=none;shape=stencil(nZFdDsIgEIRPs69mAY0HqPUCnoDIKhsRGtr6d3ppNyZofCpPOzPfZpMBTNN72xFo7IecLnRnN3gwO9Cao6fMQ5nAtGCaU8p0zmmMTnRnC6lxdsjJjppojTYfD/wi8bYr3JSncC2hbF/Tbbr6EAYletZqL2DgWIEKF6Mf/RdejH6BZZhbkb44BCm1zn9bLJb8gGnf);strokeColor=#000000;spacingTop=1;spacingBottom=1;spacingLeft=1;spacingRight=1;labelBackgroundColor=none;rounded=1;html=1;whiteSpace=wrap;" parent="1" vertex="1">
                    <mxGeometry x="334" y="608" width="141" height="70" as="geometry"/>
                </mxCell>
                <mxCell id="zGZ7-r_WiMqHJLO-a-PP-22" value="&lt;p style=&quot;align:center;margin-left:0;margin-right:0;margin-top:0px;margin-bottom:0px;text-indent:0;valign:middle;direction:ltr;&quot;&gt;&lt;font style=&quot;font-size:18px;font-family:Helvetica Neue;color:#000000;direction:ltr;letter-spacing:0px;line-height:120%;opacity:1&quot;&gt;School Impersonation&lt;/font&gt;&lt;/p&gt;" style="verticalAlign=middle;align=center;vsdxID=62;fillColor=#bfbfff;gradientColor=none;shape=stencil(nZFdDsIgEIRPs69mAY0HqPUCnoDIKhsRGtr6d3ppNyZofCpPOzPfZpMBTNN72xFo7IecLnRnN3gwO9Cao6fMQ5nAtGCaU8p0zmmMTnRnC6lxdsjJjppojTYfD/wi8bYr3JSncC2hbF/Tbbr6EAYletZqL2DgWIEKF6Mf/RdejH6BZZhbkb44BCm1zn9bLJb8gGnf);strokeColor=#000000;spacingTop=1;spacingBottom=1;spacingLeft=1;spacingRight=1;labelBackgroundColor=none;rounded=1;html=1;whiteSpace=wrap;" parent="1" vertex="1">
                    <mxGeometry x="667" y="244" width="141" height="70" as="geometry"/>
                </mxCell>
                <mxCell id="zGZ7-r_WiMqHJLO-a-PP-23" value="&lt;p style=&quot;align:center;margin-left:0;margin-right:0;margin-top:0px;margin-bottom:0px;text-indent:0;valign:middle;direction:ltr;&quot;&gt;&lt;font style=&quot;font-size:18px;font-family:Helvetica Neue;color:#000000;direction:ltr;letter-spacing:0px;line-height:120%;opacity:1&quot;&gt;View Pin Usage&lt;/font&gt;&lt;/p&gt;" style="verticalAlign=middle;align=center;vsdxID=63;fillColor=#bfbfff;gradientColor=none;shape=stencil(nZFdDsIgEIRPs69mAY0HqPUCnoDIKhsRGtr6d3ppNyZofCpPOzPfZpMBTNN72xFo7IecLnRnN3gwO9Cao6fMQ5nAtGCaU8p0zmmMTnRnC6lxdsjJjppojTYfD/wi8bYr3JSncC2hbF/Tbbr6EAYletZqL2DgWIEKF6Mf/RdejH6BZZhbkb44BCm1zn9bLJb8gGnf);strokeColor=#000000;spacingTop=1;spacingBottom=1;spacingLeft=1;spacingRight=1;labelBackgroundColor=none;rounded=1;html=1;whiteSpace=wrap;" parent="1" vertex="1">
                    <mxGeometry x="667" y="365" width="141" height="70" as="geometry"/>
                </mxCell>
                <mxCell id="zGZ7-r_WiMqHJLO-a-PP-24" value="&lt;p style=&quot;align:center;margin-left:0;margin-right:0;margin-top:0px;margin-bottom:0px;text-indent:0;valign:middle;direction:ltr;&quot;&gt;&lt;font style=&quot;font-size:18px;font-family:Helvetica Neue;color:#000000;direction:ltr;letter-spacing:0px;line-height:120%;opacity:1&quot;&gt;Check Diagnostics&lt;/font&gt;&lt;/p&gt;" style="verticalAlign=middle;align=center;vsdxID=64;fillColor=#bfbfff;gradientColor=none;shape=stencil(nZFdDsIgEIRPs69mAY0HqPUCnoDIKhsRGtr6d3ppNyZofCpPOzPfZpMBTNN72xFo7IecLnRnN3gwO9Cao6fMQ5nAtGCaU8p0zmmMTnRnC6lxdsjJjppojTYfD/wi8bYr3JSncC2hbF/Tbbr6EAYletZqL2DgWIEKF6Mf/RdejH6BZZhbkb44BCm1zn9bLJb8gGnf);strokeColor=#000000;spacingTop=1;spacingBottom=1;spacingLeft=1;spacingRight=1;labelBackgroundColor=none;rounded=1;html=1;whiteSpace=wrap;" parent="1" vertex="1">
                    <mxGeometry x="833" y="244" width="141" height="70" as="geometry"/>
                </mxCell>
                <mxCell id="zGZ7-r_WiMqHJLO-a-PP-25" value="&lt;p style=&quot;align:center;margin-left:0;margin-right:0;margin-top:0px;margin-bottom:0px;text-indent:0;valign:middle;direction:ltr;&quot;&gt;&lt;font style=&quot;font-size:18px;font-family:Helvetica Neue;color:#000000;direction:ltr;letter-spacing:0px;line-height:120%;opacity:1&quot;&gt;Guidance&lt;/font&gt;&lt;/p&gt;" style="verticalAlign=middle;align=center;vsdxID=65;fillColor=#bfbfff;gradientColor=none;shape=stencil(nZFdDsIgEIRPs69mAY0HqPUCnoDIKhsRGtr6d3ppNyZofCpPOzPfZpMBTNN72xFo7IecLnRnN3gwO9Cao6fMQ5nAtGCaU8p0zmmMTnRnC6lxdsjJjppojTYfD/wi8bYr3JSncC2hbF/Tbbr6EAYletZqL2DgWIEKF6Mf/RdejH6BZZhbkb44BCm1zn9bLJb8gGnf);strokeColor=#000000;spacingTop=1;spacingBottom=1;spacingLeft=1;spacingRight=1;labelBackgroundColor=none;rounded=1;html=1;whiteSpace=wrap;" parent="1" vertex="1">
                    <mxGeometry x="167" y="244" width="141" height="70" as="geometry"/>
                </mxCell>
                <mxCell id="zGZ7-r_WiMqHJLO-a-PP-26" value="&lt;p style=&quot;align:center;margin-left:0;margin-right:0;margin-top:0px;margin-bottom:0px;text-indent:0;valign:middle;direction:ltr;&quot;&gt;&lt;font style=&quot;font-size:18px;font-family:Helvetica Neue;color:#000000;direction:ltr;letter-spacing:0px;line-height:120%;opacity:1&quot;&gt;Manage Pupil Register&lt;/font&gt;&lt;/p&gt;" style="verticalAlign=middle;align=center;vsdxID=66;fillColor=#bfbfff;gradientColor=none;shape=stencil(nZFdDsIgEIRPs69mAY0HqPUCnoDIKhsRGtr6d3ppNyZofCpPOzPfZpMBTNN72xFo7IecLnRnN3gwO9Cao6fMQ5nAtGCaU8p0zmmMTnRnC6lxdsjJjppojTYfD/wi8bYr3JSncC2hbF/Tbbr6EAYletZqL2DgWIEKF6Mf/RdejH6BZZhbkb44BCm1zn9bLJb8gGnf);strokeColor=#000000;spacingTop=1;spacingBottom=1;spacingLeft=1;spacingRight=1;labelBackgroundColor=none;rounded=1;html=1;whiteSpace=wrap;" parent="1" vertex="1">
                    <mxGeometry x="167" y="365" width="141" height="70" as="geometry"/>
                </mxCell>
                <mxCell id="zGZ7-r_WiMqHJLO-a-PP-27" value="&lt;p style=&quot;align:center;margin-left:0;margin-right:0;margin-top:0px;margin-bottom:0px;text-indent:0;valign:middle;direction:ltr;&quot;&gt;&lt;font style=&quot;font-size:18px;font-family:Helvetica Neue;color:#000000;direction:ltr;letter-spacing:0px;line-height:120%;opacity:1&quot;&gt;Pupil Groups&lt;/font&gt;&lt;/p&gt;" style="verticalAlign=middle;align=center;vsdxID=67;fillColor=#bfbfff;gradientColor=none;shape=stencil(nZFdDsIgEIRPs69mAY0HqPUCnoDIKhsRGtr6d3ppNyZofCpPOzPfZpMBTNN72xFo7IecLnRnN3gwO9Cao6fMQ5nAtGCaU8p0zmmMTnRnC6lxdsjJjppojTYfD/wi8bYr3JSncC2hbF/Tbbr6EAYletZqL2DgWIEKF6Mf/RdejH6BZZhbkb44BCm1zn9bLJb8gGnf);strokeColor=#000000;spacingTop=1;spacingBottom=1;spacingLeft=1;spacingRight=1;labelBackgroundColor=none;rounded=1;html=1;whiteSpace=wrap;" parent="1" vertex="1">
                    <mxGeometry x="167" y="486" width="141" height="70" as="geometry"/>
                </mxCell>
                <mxCell id="zGZ7-r_WiMqHJLO-a-PP-28" value="&lt;p style=&quot;align:center;margin-left:0;margin-right:0;margin-top:0px;margin-bottom:0px;text-indent:0;valign:middle;direction:ltr;&quot;&gt;&lt;font style=&quot;font-size:18px;font-family:Helvetica Neue;color:#000000;direction:ltr;letter-spacing:0px;line-height:120%;opacity:1&quot;&gt;Attendance&lt;/font&gt;&lt;/p&gt;" style="verticalAlign=middle;align=center;vsdxID=68;fillColor=#bfbfff;gradientColor=none;shape=stencil(nZFdDsIgEIRPs69mAY0HqPUCnoDIKhsRGtr6d3ppNyZofCpPOzPfZpMBTNN72xFo7IecLnRnN3gwO9Cao6fMQ5nAtGCaU8p0zmmMTnRnC6lxdsjJjppojTYfD/wi8bYr3JSncC2hbF/Tbbr6EAYletZqL2DgWIEKF6Mf/RdejH6BZZhbkb44BCm1zn9bLJb8gGnf);strokeColor=#000000;spacingTop=1;spacingBottom=1;spacingLeft=1;spacingRight=1;labelBackgroundColor=none;rounded=1;html=1;whiteSpace=wrap;" parent="1" vertex="1">
                    <mxGeometry x="167" y="608" width="141" height="70" as="geometry"/>
                </mxCell>
                <mxCell id="zGZ7-r_WiMqHJLO-a-PP-29" value="&lt;p style=&quot;align:center;margin-left:0;margin-right:0;margin-top:0px;margin-bottom:0px;text-indent:0;valign:middle;direction:ltr;&quot;&gt;&lt;font style=&quot;font-size:18px;font-family:Helvetica Neue;color:#000000;direction:ltr;letter-spacing:0px;line-height:120%;opacity:1&quot;&gt;Access Arrangements&lt;/font&gt;&lt;/p&gt;" style="verticalAlign=middle;align=center;vsdxID=69;fillColor=#bfbfff;gradientColor=none;shape=stencil(nZFdDsIgEIRPs69mAY0HqPUCnoDIKhsRGtr6d3ppNyZofCpPOzPfZpMBTNN72xFo7IecLnRnN3gwO9Cao6fMQ5nAtGCaU8p0zmmMTnRnC6lxdsjJjppojTYfD/wi8bYr3JSncC2hbF/Tbbr6EAYletZqL2DgWIEKF6Mf/RdejH6BZZhbkb44BCm1zn9bLJb8gGnf);strokeColor=#000000;spacingTop=1;spacingBottom=1;spacingLeft=1;spacingRight=1;labelBackgroundColor=none;rounded=1;html=1;whiteSpace=wrap;" parent="1" vertex="1">
                    <mxGeometry x="167" y="729" width="141" height="70" as="geometry"/>
                </mxCell>
                <mxCell id="zGZ7-r_WiMqHJLO-a-PP-30" value="&lt;p style=&quot;align:center;margin-left:0;margin-right:0;margin-top:0px;margin-bottom:0px;text-indent:0;valign:middle;direction:ltr;&quot;&gt;&lt;font style=&quot;font-size:18px;font-family:Helvetica Neue;color:#000000;direction:ltr;letter-spacing:0px;line-height:120%;opacity:1&quot;&gt;Create Check (Live)&lt;/font&gt;&lt;/p&gt;" style="verticalAlign=middle;align=center;vsdxID=70;fillColor=#bfbfff;gradientColor=none;shape=stencil(nZFdDsIgEIRPs69mAY0HqPUCnoDIKhsRGtr6d3ppNyZofCpPOzPfZpMBTNN72xFo7IecLnRnN3gwO9Cao6fMQ5nAtGCaU8p0zmmMTnRnC6lxdsjJjppojTYfD/wi8bYr3JSncC2hbF/Tbbr6EAYletZqL2DgWIEKF6Mf/RdejH6BZZhbkb44BCm1zn9bLJb8gGnf);strokeColor=#000000;spacingTop=1;spacingBottom=1;spacingLeft=1;spacingRight=1;labelBackgroundColor=none;rounded=1;html=1;whiteSpace=wrap;" parent="1" vertex="1">
                    <mxGeometry x="1" y="365" width="141" height="70" as="geometry"/>
                </mxCell>
                <mxCell id="zGZ7-r_WiMqHJLO-a-PP-31" value="&lt;p style=&quot;align:center;margin-left:0;margin-right:0;margin-top:0px;margin-bottom:0px;text-indent:0;valign:middle;direction:ltr;&quot;&gt;&lt;font style=&quot;font-size:18px;font-family:Helvetica Neue;color:#000000;direction:ltr;letter-spacing:0px;line-height:120%;opacity:1&quot;&gt;Check Progress Review&lt;/font&gt;&lt;/p&gt;" style="verticalAlign=middle;align=center;vsdxID=71;fillColor=#bfbfff;gradientColor=none;shape=stencil(nZFdDsIgEIRPs69mAY0HqPUCnoDIKhsRGtr6d3ppNyZofCpPOzPfZpMBTNN72xFo7IecLnRnN3gwO9Cao6fMQ5nAtGCaU8p0zmmMTnRnC6lxdsjJjppojTYfD/wi8bYr3JSncC2hbF/Tbbr6EAYletZqL2DgWIEKF6Mf/RdejH6BZZhbkb44BCm1zn9bLJb8gGnf);strokeColor=#000000;spacingTop=1;spacingBottom=1;spacingLeft=1;spacingRight=1;labelBackgroundColor=none;rounded=1;html=1;whiteSpace=wrap;" parent="1" vertex="1">
                    <mxGeometry x="1" y="486" width="141" height="70" as="geometry"/>
                </mxCell>
                <mxCell id="zGZ7-r_WiMqHJLO-a-PP-32" value="&lt;p style=&quot;align:center;margin-left:0;margin-right:0;margin-top:0px;margin-bottom:0px;text-indent:0;valign:middle;direction:ltr;&quot;&gt;&lt;font style=&quot;font-size:18px;font-family:Helvetica Neue;color:#000000;direction:ltr;letter-spacing:0px;line-height:120%;opacity:1&quot;&gt;Check Restarts&lt;/font&gt;&lt;/p&gt;" style="verticalAlign=middle;align=center;vsdxID=72;fillColor=#bfbfff;gradientColor=none;shape=stencil(nZFdDsIgEIRPs69mAY0HqPUCnoDIKhsRGtr6d3ppNyZofCpPOzPfZpMBTNN72xFo7IecLnRnN3gwO9Cao6fMQ5nAtGCaU8p0zmmMTnRnC6lxdsjJjppojTYfD/wi8bYr3JSncC2hbF/Tbbr6EAYletZqL2DgWIEKF6Mf/RdejH6BZZhbkb44BCm1zn9bLJb8gGnf);strokeColor=#000000;spacingTop=1;spacingBottom=1;spacingLeft=1;spacingRight=1;labelBackgroundColor=none;rounded=1;html=1;whiteSpace=wrap;" parent="1" vertex="1">
                    <mxGeometry x="1" y="608" width="141" height="70" as="geometry"/>
                </mxCell>
                <mxCell id="zGZ7-r_WiMqHJLO-a-PP-33" value="&lt;p style=&quot;align:center;margin-left:0;margin-right:0;margin-top:0px;margin-bottom:0px;text-indent:0;valign:middle;direction:ltr;&quot;&gt;&lt;font style=&quot;font-size:18px;font-family:Helvetica Neue;color:#000000;direction:ltr;letter-spacing:0px;line-height:120%;opacity:1&quot;&gt;HDF&lt;/font&gt;&lt;/p&gt;" style="verticalAlign=middle;align=center;vsdxID=73;fillColor=#bfbfff;gradientColor=none;shape=stencil(nZFdDsIgEIRPs69mAY0HqPUCnoDIKhsRGtr6d3ppNyZofCpPOzPfZpMBTNN72xFo7IecLnRnN3gwO9Cao6fMQ5nAtGCaU8p0zmmMTnRnC6lxdsjJjppojTYfD/wi8bYr3JSncC2hbF/Tbbr6EAYletZqL2DgWIEKF6Mf/RdejH6BZZhbkb44BCm1zn9bLJb8gGnf);strokeColor=#000000;spacingTop=1;spacingBottom=1;spacingLeft=1;spacingRight=1;labelBackgroundColor=none;rounded=1;html=1;whiteSpace=wrap;" parent="1" vertex="1">
                    <mxGeometry x="1" y="729" width="141" height="70" as="geometry"/>
                </mxCell>
                <mxCell id="zGZ7-r_WiMqHJLO-a-PP-34" value="&lt;p style=&quot;align:center;margin-left:0;margin-right:0;margin-top:0px;margin-bottom:0px;text-indent:0;valign:middle;direction:ltr;&quot;&gt;&lt;font style=&quot;font-size:18px;font-family:Helvetica Neue;color:#000000;direction:ltr;letter-spacing:0px;line-height:120%;opacity:1&quot;&gt;Results&lt;/font&gt;&lt;/p&gt;" style="verticalAlign=middle;align=center;vsdxID=74;fillColor=#bfbfff;gradientColor=none;shape=stencil(nZFdDsIgEIRPs69mAY0HqPUCnoDIKhsRGtr6d3ppNyZofCpPOzPfZpMBTNN72xFo7IecLnRnN3gwO9Cao6fMQ5nAtGCaU8p0zmmMTnRnC6lxdsjJjppojTYfD/wi8bYr3JSncC2hbF/Tbbr6EAYletZqL2DgWIEKF6Mf/RdejH6BZZhbkb44BCm1zn9bLJb8gGnf);strokeColor=#000000;spacingTop=1;spacingBottom=1;spacingLeft=1;spacingRight=1;labelBackgroundColor=none;rounded=1;html=1;whiteSpace=wrap;" parent="1" vertex="1">
                    <mxGeometry x="1" y="850" width="141" height="70" as="geometry"/>
                </mxCell>
                <mxCell id="zGZ7-r_WiMqHJLO-a-PP-35" value="&lt;p style=&quot;align:center;margin-left:0;margin-right:0;margin-top:0px;margin-bottom:0px;text-indent:0;valign:middle;direction:ltr;&quot;&gt;&lt;font style=&quot;font-size:18px;font-family:Helvetica Neue;color:#000000;direction:ltr;letter-spacing:0px;line-height:120%;opacity:1&quot;&gt;Configure Font Size&lt;/font&gt;&lt;/p&gt;" style="verticalAlign=middle;align=center;vsdxID=75;fillColor=#bfbfff;gradientColor=none;shape=stencil(nZFdDsIgEIRPs69mAY0HqPUCnoDIKhsRGtr6d3ppNyZofCpPOzPfZpMBTNN72xFo7IecLnRnN3gwO9Cao6fMQ5nAtGCaU8p0zmmMTnRnC6lxdsjJjppojTYfD/wi8bYr3JSncC2hbF/Tbbr6EAYletZqL2DgWIEKF6Mf/RdejH6BZZhbkb44BCm1zn9bLJb8gGnf);strokeColor=#000000;spacingTop=1;spacingBottom=1;spacingLeft=1;spacingRight=1;labelBackgroundColor=none;rounded=1;html=1;whiteSpace=wrap;" parent="1" vertex="1">
                    <mxGeometry x="1000" y="244" width="141" height="70" as="geometry"/>
                </mxCell>
                <mxCell id="zGZ7-r_WiMqHJLO-a-PP-36" value="&lt;p style=&quot;align:center;margin-left:0;margin-right:0;margin-top:0px;margin-bottom:0px;text-indent:0;valign:middle;direction:ltr;&quot;&gt;&lt;font style=&quot;font-size:18px;font-family:Helvetica Neue;color:#000000;direction:ltr;letter-spacing:0px;line-height:120%;opacity:1&quot;&gt;Configure Colours&lt;/font&gt;&lt;/p&gt;" style="verticalAlign=middle;align=center;vsdxID=76;fillColor=#bfbfff;gradientColor=none;shape=stencil(nZFdDsIgEIRPs69mAY0HqPUCnoDIKhsRGtr6d3ppNyZofCpPOzPfZpMBTNN72xFo7IecLnRnN3gwO9Cao6fMQ5nAtGCaU8p0zmmMTnRnC6lxdsjJjppojTYfD/wi8bYr3JSncC2hbF/Tbbr6EAYletZqL2DgWIEKF6Mf/RdejH6BZZhbkb44BCm1zn9bLJb8gGnf);strokeColor=#000000;spacingTop=1;spacingBottom=1;spacingLeft=1;spacingRight=1;labelBackgroundColor=none;rounded=1;html=1;whiteSpace=wrap;" parent="1" vertex="1">
                    <mxGeometry x="1000" y="365" width="141" height="70" as="geometry"/>
                </mxCell>
                <mxCell id="zGZ7-r_WiMqHJLO-a-PP-37" value="&lt;p style=&quot;align:center;margin-left:0;margin-right:0;margin-top:0px;margin-bottom:0px;text-indent:0;valign:middle;direction:ltr;&quot;&gt;&lt;font style=&quot;font-size:18px;font-family:Helvetica Neue;color:#000000;direction:ltr;letter-spacing:0px;line-height:120%;opacity:1&quot;&gt;Speech Reader&lt;/font&gt;&lt;/p&gt;" style="verticalAlign=middle;align=center;vsdxID=77;fillColor=#bfbfff;gradientColor=none;shape=stencil(nZFdDsIgEIRPs69mAY0HqPUCnoDIKhsRGtr6d3ppNyZofCpPOzPfZpMBTNN72xFo7IecLnRnN3gwO9Cao6fMQ5nAtGCaU8p0zmmMTnRnC6lxdsjJjppojTYfD/wi8bYr3JSncC2hbF/Tbbr6EAYletZqL2DgWIEKF6Mf/RdejH6BZZhbkb44BCm1zn9bLJb8gGnf);strokeColor=#000000;spacingTop=1;spacingBottom=1;spacingLeft=1;spacingRight=1;labelBackgroundColor=none;rounded=1;html=1;whiteSpace=wrap;" parent="1" vertex="1">
                    <mxGeometry x="1000" y="486" width="141" height="70" as="geometry"/>
                </mxCell>
                <mxCell id="zGZ7-r_WiMqHJLO-a-PP-38" value="&lt;p style=&quot;align:center;margin-left:0;margin-right:0;margin-top:0px;margin-bottom:0px;text-indent:0;valign:middle;direction:ltr;&quot;&gt;&lt;font style=&quot;font-size:18px;font-family:Helvetica Neue;color:#000000;direction:ltr;letter-spacing:0px;line-height:120%;opacity:1&quot;&gt;Take Check&lt;/font&gt;&lt;/p&gt;" style="verticalAlign=middle;align=center;vsdxID=78;fillColor=#bfbfff;gradientColor=none;shape=stencil(nZFdDsIgEIRPs69mAY0HqPUCnoDIKhsRGtr6d3ppNyZofCpPOzPfZpMBTNN72xFo7IecLnRnN3gwO9Cao6fMQ5nAtGCaU8p0zmmMTnRnC6lxdsjJjppojTYfD/wi8bYr3JSncC2hbF/Tbbr6EAYletZqL2DgWIEKF6Mf/RdejH6BZZhbkb44BCm1zn9bLJb8gGnf);strokeColor=#000000;spacingTop=1;spacingBottom=1;spacingLeft=1;spacingRight=1;labelBackgroundColor=none;rounded=1;html=1;whiteSpace=wrap;" parent="1" vertex="1">
                    <mxGeometry x="1000" y="608" width="141" height="70" as="geometry"/>
                </mxCell>
                <mxCell id="zGZ7-r_WiMqHJLO-a-PP-39" value="&lt;p style=&quot;align:center;margin-left:0;margin-right:0;margin-top:0px;margin-bottom:0px;text-indent:0;valign:middle;direction:ltr;&quot;&gt;&lt;font style=&quot;font-size:18px;font-family:Helvetica Neue;color:#000000;direction:ltr;letter-spacing:0px;line-height:120%;opacity:1&quot;&gt;System&lt;/font&gt;&lt;/p&gt;" style="verticalAlign=middle;align=center;vsdxID=79;fillColor=#bfffbf;gradientColor=none;shape=stencil(nZFdDsIgEIRPs69mAY0HqPUCnoDIKhsRGtr6d3ppNyZofCpPOzPfZpMBTNN72xFo7IecLnRnN3gwO9Cao6fMQ5nAtGCaU8p0zmmMTnRnC6lxdsjJjppojTYfD/wi8bYr3JSncC2hbF/Tbbr6EAYletZqL2DgWIEKF6Mf/RdejH6BZZhbkb44BCm1zn9bLJb8gGnf);strokeColor=#000000;spacingTop=1;spacingBottom=1;spacingLeft=1;spacingRight=1;labelBackgroundColor=none;rounded=1;html=1;whiteSpace=wrap;" parent="1" vertex="1">
                    <mxGeometry x="1166" y="122" width="141" height="70" as="geometry"/>
                </mxCell>
                <mxCell id="zGZ7-r_WiMqHJLO-a-PP-40" value="&lt;p style=&quot;align:center;margin-left:0;margin-right:0;margin-top:0px;margin-bottom:0px;text-indent:0;valign:middle;direction:ltr;&quot;&gt;&lt;font style=&quot;font-size:18px;font-family:Helvetica Neue;color:#000000;direction:ltr;letter-spacing:0px;line-height:120%;opacity:1&quot;&gt;Submission Persistence&lt;/font&gt;&lt;/p&gt;" style="verticalAlign=middle;align=center;vsdxID=80;fillColor=#bfbfff;gradientColor=none;shape=stencil(nZFdDsIgEIRPs69mAY0HqPUCnoDIKhsRGtr6d3ppNyZofCpPOzPfZpMBTNN72xFo7IecLnRnN3gwO9Cao6fMQ5nAtGCaU8p0zmmMTnRnC6lxdsjJjppojTYfD/wi8bYr3JSncC2hbF/Tbbr6EAYletZqL2DgWIEKF6Mf/RdejH6BZZhbkb44BCm1zn9bLJb8gGnf);strokeColor=#000000;spacingTop=1;spacingBottom=1;spacingLeft=1;spacingRight=1;labelBackgroundColor=none;rounded=1;html=1;whiteSpace=wrap;" parent="1" vertex="1">
                    <mxGeometry x="1166" y="244" width="141" height="70" as="geometry"/>
                </mxCell>
                <mxCell id="zGZ7-r_WiMqHJLO-a-PP-41" value="&lt;p style=&quot;align:center;margin-left:0;margin-right:0;margin-top:0px;margin-bottom:0px;text-indent:0;valign:middle;direction:ltr;&quot;&gt;&lt;font style=&quot;font-size:18px;font-family:Helvetica Neue;color:#000000;direction:ltr;letter-spacing:0px;line-height:120%;opacity:1&quot;&gt;Marking &amp;amp; Validation&lt;/font&gt;&lt;/p&gt;" style="verticalAlign=middle;align=center;vsdxID=81;fillColor=#bfbfff;gradientColor=none;shape=stencil(nZFdDsIgEIRPs69mAY0HqPUCnoDIKhsRGtr6d3ppNyZofCpPOzPfZpMBTNN72xFo7IecLnRnN3gwO9Cao6fMQ5nAtGCaU8p0zmmMTnRnC6lxdsjJjppojTYfD/wi8bYr3JSncC2hbF/Tbbr6EAYletZqL2DgWIEKF6Mf/RdejH6BZZhbkb44BCm1zn9bLJb8gGnf);strokeColor=#000000;spacingTop=1;spacingBottom=1;spacingLeft=1;spacingRight=1;labelBackgroundColor=none;rounded=1;html=1;whiteSpace=wrap;" parent="1" vertex="1">
                    <mxGeometry x="1166" y="365" width="141" height="70" as="geometry"/>
                </mxCell>
                <mxCell id="zGZ7-r_WiMqHJLO-a-PP-42" value="&lt;p style=&quot;align:center;margin-left:0;margin-right:0;margin-top:0px;margin-bottom:0px;text-indent:0;valign:middle;direction:ltr;&quot;&gt;&lt;font style=&quot;font-size:18px;font-family:Helvetica Neue;color:#000000;direction:ltr;letter-spacing:0px;line-height:120%;opacity:1&quot;&gt;Results&lt;/font&gt;&lt;/p&gt;" style="verticalAlign=middle;align=center;vsdxID=82;fillColor=#bfbfff;gradientColor=none;shape=stencil(nZFdDsIgEIRPs69mAY0HqPUCnoDIKhsRGtr6d3ppNyZofCpPOzPfZpMBTNN72xFo7IecLnRnN3gwO9Cao6fMQ5nAtGCaU8p0zmmMTnRnC6lxdsjJjppojTYfD/wi8bYr3JSncC2hbF/Tbbr6EAYletZqL2DgWIEKF6Mf/RdejH6BZZhbkb44BCm1zn9bLJb8gGnf);strokeColor=#000000;spacingTop=1;spacingBottom=1;spacingLeft=1;spacingRight=1;labelBackgroundColor=none;rounded=1;html=1;whiteSpace=wrap;" parent="1" vertex="1">
                    <mxGeometry x="1166" y="486" width="141" height="70" as="geometry"/>
                </mxCell>
                <mxCell id="zGZ7-r_WiMqHJLO-a-PP-43" value="&lt;p style=&quot;align:center;margin-left:0;margin-right:0;margin-top:0px;margin-bottom:0px;text-indent:0;valign:middle;direction:ltr;&quot;&gt;&lt;font style=&quot;font-size:18px;font-family:Helvetica Neue;color:#000000;direction:ltr;letter-spacing:0px;line-height:120%;opacity:1&quot;&gt;MI Reporting&lt;/font&gt;&lt;/p&gt;" style="verticalAlign=middle;align=center;vsdxID=83;fillColor=#bfbfff;gradientColor=none;shape=stencil(nZFdDsIgEIRPs69mAY0HqPUCnoDIKhsRGtr6d3ppNyZofCpPOzPfZpMBTNN72xFo7IecLnRnN3gwO9Cao6fMQ5nAtGCaU8p0zmmMTnRnC6lxdsjJjppojTYfD/wi8bYr3JSncC2hbF/Tbbr6EAYletZqL2DgWIEKF6Mf/RdejH6BZZhbkb44BCm1zn9bLJb8gGnf);strokeColor=#000000;spacingTop=1;spacingBottom=1;spacingLeft=1;spacingRight=1;labelBackgroundColor=none;rounded=1;html=1;whiteSpace=wrap;" parent="1" vertex="1">
                    <mxGeometry x="1166" y="608" width="141" height="70" as="geometry"/>
                </mxCell>
            </root>
        </mxGraphModel>
    </diagram>
</mxfile>
